<svg clip-rule="evenodd" fill-rule="evenodd" height="512" stroke-linejoin="round" stroke-miterlimit="2" viewBox="0 0 24 24" width="512" xmlns="http://www.w3.org/2000/svg"><g id="Icon"><path d="m5.75 12.5v-1c0-.967-.783-1.75-1.75-1.75h-1c-.967 0-1.75.783-1.75 1.75v1c0 .967.783 1.75 1.75 1.75h1c.967 0 1.75-.783 1.75-1.75z"/><path d="m16.75 15c0-.966-.784-1.75-1.75-1.75h-6c-.966 0-1.75.784-1.75 1.75v6c0 .966.784 1.75 1.75 1.75h6c.966 0 1.75-.784 1.75-1.75z"/><path d="m10.25 10.75v-2.75c0-1.519 1.231-2.75 2.75-2.75h3.75v-2.25c0-.966-.784-1.75-1.75-1.75h-6c-.966 0-1.75.784-1.75 1.75v6c0 .966.784 1.75 1.75 1.75z"/><path d="m11.25 12.25h3.75c1.519 0 2.75 1.231 2.75 2.75v2.75h3.25c.967 0 1.75-.783 1.75-1.75v-8c0-.967-.783-1.75-1.75-1.75h-8c-.967 0-1.75.783-1.75 1.75z"/></g></svg>