<svg id="Glyph" height="512" viewBox="0 0 64 64" width="512" xmlns="http://www.w3.org/2000/svg"><path d="m2.61 37.02a1.45852 1.45852 0 0 1 -.11-.55v-32.47a1.498 1.498 0 0 1 1.5-1.5h11.77a1.50728 1.50728 0 0 1 1.06.44l10.35 10.35a1.49682 1.49682 0 0 1 0 2.12l-22.12 22.12a1.50653 1.50653 0 0 1 -2.45-.51z"/><path d="m61.5 4v11.77a1.809 1.809 0 0 1 -.11.57 1.62577 1.62577 0 0 1 -.33.49l-10.35 10.35a1.50713 1.50713 0 0 1 -2.12 0l-22.12-22.12a1.5155 1.5155 0 0 1 .4901-2.45 1.79313 1.79313 0 0 1 .57-.11h32.4699a1.498 1.498 0 0 1 1.5 1.5z"/><path d="m61.39 26.98a1.45841 1.45841 0 0 1 .11.55v32.47a1.498 1.498 0 0 1 -1.5 1.5h-11.77a1.50747 1.50747 0 0 1 -1.06-.44l-10.35-10.35a1.49678 1.49678 0 0 1 0-2.12l22.12-22.12a1.50658 1.50658 0 0 1 2.45.51z"/><path d="m19.17 30.94 11.77-11.77a1.509 1.509 0 0 1 2.12 0l11.77 11.77a1.50907 1.50907 0 0 1 0 2.12l-11.77 11.77a1.51876 1.51876 0 0 1 -2.12 0l-11.77-11.77a1.50906 1.50906 0 0 1 0-2.12z"/><path d="m37.86 59.45a1.50661 1.50661 0 0 1 -1.39 2.05h-32.47a1.498 1.498 0 0 1 -1.5-1.5v-11.77a1.81029 1.81029 0 0 1 .11-.57 1.62669 1.62669 0 0 1 .33-.49l10.35-10.35a1.54761 1.54761 0 0 1 2.12 0l22.12 22.12a1.28931 1.28931 0 0 1 .33.51z"/></svg>