<svg fill="none" height="512" viewBox="0 0 24 24" width="512" xmlns="http://www.w3.org/2000/svg"><g fill="rgb(0,0,0)"><path d="m20.2083 7.82141-7.7 4.45999c-.31.18-.7.18-1.02 0l-7.70004-4.45999c-.55-.32-.69-1.07-.27-1.54.29-.33.62-.6.97-.79l5.42-3c1.16004-.65 3.04004-.65 4.20004 0l5.42 3c.35.19.68.47.97.79.4.47.26 1.22-.29 1.54z"/><path d="m11.4305 14.1389v6.82c0 .76-.77 1.26-1.45003.93-2.06-1.01-5.53-2.9-5.53-2.9-1.22-.69-2.22-2.43-2.22-3.86v-5.16c0-.79.83-1.29 1.51-.9l7.19003 4.17c.3.19.5.53.5.9z"/><path d="m12.5703 14.1389v6.82c0 .76.77 1.26 1.45.93 2.06-1.01 5.53-2.9 5.53-2.9 1.22-.69 2.22-2.43 2.22-3.86v-5.16c0-.79-.83-1.29-1.51-.9l-7.19 4.17c-.3.19-.5.53-.5.9z"/></g></svg>