<?xml version="1.0" encoding="utf-8"?>
<!-- Generator: Adobe Illustrator 19.0.0, SVG Export Plug-In . SVG Version: 6.00 Build 0)  -->
<svg xmlns="http://www.w3.org/2000/svg" xmlns:xlink="http://www.w3.org/1999/xlink" version="1.1" id="Layer_1" x="0px" y="0px" viewBox="0 2 98 98" style="enable-background:new 0 2 98 98;" xml:space="preserve" width="512" height="512">
<style type="text/css">
	.st0{fill:url(#SVGID_1_);}
</style>
<linearGradient id="SVGID_1_" gradientUnits="userSpaceOnUse" x1="49" y1="20.4001" x2="49" y2="81.5999">
	<stop offset="0" style="stop-color:#00EFD1"/>
	<stop offset="1" style="stop-color:#00ACEA"/>
</linearGradient>
<path class="st0" d="M96.1,38.3c0-5.5-4.5-10-10-10s-10,4.5-10,10c0,1.7,0.4,3.3,1.2,4.7l-10.6,8.1L56.2,37.3  c1.7-1.8,2.8-4.2,2.8-6.9c0-5.5-4.5-10-10-10c-5.5,0-10,4.5-10,10c0,2.6,1,5,2.6,6.7l-11.3,14l-9.8-7.9c0.8-1.5,1.3-3.1,1.3-4.9  c0-5.5-4.5-10-10-10s-10,4.5-10,10c0,5.2,4,9.5,9.2,10l3.8,19.9v10.4c0,1.7,1.3,3,3,3h62.2c1.7,0,3-1.3,3-3V68.2l3.8-19.9  C92.1,47.8,96.1,43.5,96.1,38.3z M86.1,34.3c2.2,0,4,1.8,4,4s-1.8,4-4,4s-4-1.8-4-4S83.9,34.3,86.1,34.3z M49,26.4c2.2,0,4,1.8,4,4  s-1.8,4-4,4c-2.2,0-4-1.8-4-4S46.8,26.4,49,26.4z M30.8,58.4c0.1,0,0.2,0,0.3,0c0.8-0.1,1.5-0.5,2-1.1l13.7-17.1  c0.7,0.1,1.4,0.2,2.1,0.2c0.6,0,1.3-0.1,1.9-0.2l12.8,17c0.5,0.6,1.2,1.1,2,1.2c0.1,0,0.3,0,0.4,0c0.7,0,1.3-0.2,1.8-0.6l13-10  l-3.3,17.1H20.4l-3.2-16.7l11.8,9.6C29.4,58.2,30.1,58.4,30.8,58.4z M7.9,38.3c0-2.2,1.8-4,4-4s4,1.8,4,4s-1.8,4-4,4  S7.9,40.5,7.9,38.3z M20.9,75.6v-4.7h56.2v4.7H20.9z"/>
</svg>
