<svg id="Capa_1" enable-background="new 0 0 512.044 512.044" height="512" viewBox="0 0 512.044 512.044" width="512" xmlns="http://www.w3.org/2000/svg" xmlns:xlink="http://www.w3.org/1999/xlink"><linearGradient id="SVGID_1_" gradientUnits="userSpaceOnUse" x1=".018" x2="503.754" y1="512.008" y2="8.272"><stop offset="0" stop-color="#009efd"/><stop offset="1" stop-color="#2af598"/></linearGradient><g><g><g><path d="m506.368 21.347-2.614-13.074-13.075-2.615c-95.122-19.025-192.87 10.569-261.467 79.166l-53.582 53.583-14.142-14.142c-23.393-23.394-61.459-23.393-84.854 0l-56.566 56.565c-.001.001-.002.002-.002.002l-20.035 20.035 28.285 28.284 20.04-20.04c3.778-3.774 8.797-5.852 14.136-5.852 5.343 0 10.364 2.08 14.143 5.858l18.447 18.446 94.676 94.676c-31.195-31.177-81.936-31.173-113.124.014-8.468 8.468-14.789 18.45-18.758 29.587l-57.858 160.168 160.141-57.848c11.195-3.999 21.158-10.313 29.614-18.769 15.109-15.11 23.432-35.2 23.432-56.569 0-21.362-8.317-41.445-23.417-56.553l84.837 84.837 28.284 28.284c7.799 7.798 7.799 20.486 0 28.284l-20.084 20.084 28.285 28.284 20.084-20.084.001-.001 56.566-56.567c11.333-11.333 17.574-26.4 17.574-42.427s-6.241-31.094-17.573-42.427l-14.142-14.142 53.583-53.583c68.596-68.594 98.191-166.338 79.165-261.464zm-344.881 385.76c-4.242 4.242-9.226 7.403-14.811 9.393l-80.076 28.927 28.927-80.077c1.99-5.587 5.15-10.57 9.392-14.812 7.799-7.798 18.042-11.697 28.285-11.697s20.486 3.899 28.285 11.697c7.555 7.555 11.716 17.6 11.716 28.284-.001 10.685-4.162 20.73-11.718 28.285zm307.962-364.53c4.924 34.1 2.702 68.332-6.066 100.739l-94.674-94.674c32.408-8.767 66.64-10.99 100.74-6.065zm-350.388 152.398-14.142-14.142c-4.894-4.894-10.487-8.833-16.55-11.735l16.549-16.549c7.8-7.797 20.487-7.798 28.285 0l14.142 14.142zm240.416 212.132-16.574 16.574c-2.856-5.996-6.751-11.617-11.709-16.574l-14.142-14.142 28.284-28.284 14.142 14.142c3.778 3.778 5.858 8.8 5.858 14.142-.001 5.342-2.081 10.364-5.859 14.142zm-70.71-42.427-141.421-141.421 110.151-110.152c20.621-20.621 44.306-37.138 69.88-49.227l120.769 120.769c-12.09 25.573-28.607 49.259-49.228 69.88zm-14.142-212.132c-11.333 11.333-17.574 26.4-17.574 42.427s6.241 31.094 17.574 42.427c11.696 11.697 27.062 17.545 42.426 17.545s30.729-5.848 42.426-17.545h.001c11.332-11.333 17.573-26.4 17.573-42.427s-6.241-31.094-17.573-42.426c-23.397-23.395-61.46-23.394-84.853-.001zm56.568 56.569c-7.801 7.798-20.487 7.798-28.284 0-3.778-3.778-5.858-8.8-5.858-14.142s2.08-10.365 5.858-14.142c3.898-3.899 9.02-5.848 14.142-5.848 5.121 0 10.243 1.949 14.143 5.849 3.777 3.777 5.857 8.8 5.857 14.142 0 5.341-2.08 10.363-5.858 14.141z" fill="url(#SVGID_1_)"/></g></g></g></svg>