<svg enable-background="new 0 0 24 24" height="512" viewBox="0 0 24 24" width="512" xmlns="http://www.w3.org/2000/svg"><path d="m23.648 14.564-3.869-10.289c-.001-.002-.001-.004-.002-.006l-.001-.001c-.51-1.357-1.827-2.268-3.276-2.268s-2.766.911-3.277 2.269c-.148.394-.223.809-.223 1.231v4.5h-2v-4.5c0-1.93-1.57-3.5-3.5-3.5-1.449 0-2.766.911-3.277 2.269-.001.002-.001.004-.002.006l-3.869 10.286c0 .001-.001.001-.001.001-.233.621-.351 1.272-.351 1.938 0 3.033 2.468 5.5 5.5 5.5s5.5-2.467 5.5-5.5v-.5h2v.5c0 3.033 2.468 5.5 5.5 5.5s5.5-2.467 5.5-5.5c0-.666-.118-1.317-.352-1.936zm-18.148 5.436c-1.93 0-3.5-1.57-3.5-3.5 0-.424.075-.839.223-1.232.51-1.356 1.827-2.268 3.277-2.268 1.93 0 3.5 1.57 3.5 3.5s-1.57 3.5-3.5 3.5zm13 0c-1.93 0-3.5-1.57-3.5-3.5s1.57-3.5 3.5-3.5c1.45 0 2.767.912 3.277 2.268.148.393.223.808.223 1.232 0 1.93-1.57 3.5-3.5 3.5z"/></svg>