<svg id="Layer_1" enable-background="new 0 0 100 100" height="512" viewBox="0 0 100 100" width="512" xmlns="http://www.w3.org/2000/svg"><path d="m33.7 27.1c-7.6 4.4-13.3 11.6-15.5 20.3-.2.9.6 1.8 1.5 1.6 1-.3 2.1-.5 3.2-.6 1.2-.1 2.2-.9 2.6-2 1.7-4.5 4.6-8.5 8.3-11.4 1.3-1 3.2-.8 4.2.5 2.7 3.7 7.1 6.1 12 6.1 8.5 0 15.4-7.1 15-15.7-.3-7.3-7-13.9-14.2-14.2-8-.4-14.7 5.5-15.6 13.2-.2.9-.7 1.8-1.5 2.2z"/><path d="m10 70.3c.1 7.5 6.1 13.9 13.5 14.6 2.6.3 5.1-.2 7.3-1.2.9-.4 1.9-.4 2.7.1 4.8 2.8 10.5 4.4 16.5 4.4 2.8 0 5.6-.4 8.2-1.1 1.2-.3 1.7-1.7.8-2.6-.6-.7-1.2-1.4-1.7-2.1-.7-1-1.8-1.4-3-1.2-1.4.2-2.9.4-4.4.4-3.4 0-6.6-.7-9.6-1.9-1.5-.6-2.2-2.4-1.6-3.9.9-1.8 1.3-3.7 1.3-5.8 0-8.3-6.7-15-15-15-8.4 0-15.2 6.9-15 15.3z"/><path d="m50 47.2c4.6 0 8.3 3.7 8.3 8.3s-3.7 8.3-8.3 8.3-8.3-3.7-8.3-8.3 3.7-8.3 8.3-8.3z"/><path d="m85.3 81.6c6.2-4.3 8.2-12.8 4.6-19.4-1.2-2.3-3-4.1-5-5.4-.8-.5-1.4-1.4-1.4-2.3-.3-5.6-2.1-11.2-5.5-16.2-1.6-2.4-3.4-4.4-5.5-6.2-.9-.8-2.4-.4-2.7.8-.2.9-.5 1.7-.8 2.6-.4 1.1-.2 2.3.6 3.2 1 1 1.9 2.2 2.8 3.4 1.9 2.8 3.1 5.9 3.8 9 .3 1.6-.8 3.2-2.4 3.5-1.9.4-3.8 1.1-5.5 2.3-6.9 4.6-8.7 13.9-4.1 20.8 4.7 6.9 14.2 8.7 21.1 3.9z"/></svg>