<?xml version="1.0" encoding="UTF-8" standalone="no"?>
<!-- Created with Inkscape (http://www.inkscape.org/) -->
<svg xmlns="http://www.w3.org/2000/svg" xmlns:svg="http://www.w3.org/2000/svg" version="1.1" id="svg1686" width="682.66669" height="682.66669" viewBox="0 0 682.66669 682.66669">
  <defs id="defs1690">
    <clipPath clipPathUnits="userSpaceOnUse" id="clipPath1700">
      <path d="M 0,512 H 512 V 0 H 0 Z" id="path1698"/>
    </clipPath>
    <clipPath clipPathUnits="userSpaceOnUse" id="clipPath1716">
      <path d="M 0,512 H 512 V 0 H 0 Z" id="path1714"/>
    </clipPath>
  </defs>
  <mask id="custom"><rect id="bg" x="0" y="0" width="100%" height="100%" fill="white"/><g transform="matrix(1.3333333,0,0,-1.3333333,0,682.66667)"><path transform="matrix(1,0,0,1,350.1487,948.9041)" d="m 0,0 -23.888,-9.556 c -17.486,-6.994 -37.261,-7.958 -56.027,-7.958 -6.312,0 -12.607,0.121 -19.271,0.249 -6.65,0.129 -13.525,0.261 -20.404,0.261 h -50.648 c -39.844,0 -73.925,-29.773 -79.275,-69.256 l -0.926,-6.831 c -6.205,-3.433 -11.977,-7.687 -17.147,-12.669 -16.055,-15.476 -24.897,-36.276 -24.897,-58.57 0,-28.499 14.986,-54.408 38.308,-69.007 1.826,-15.902 8.059,-30.48 17.443,-42.486 -39.945,-6.935 -70.417,-41.85 -70.417,-83.748 v -56 -30 h 30 366 30 v 30 56 c 0,41.898 -30.472,76.813 -70.416,83.748 9.383,12.006 15.616,26.584 17.443,42.486 23.321,14.599 38.307,40.508 38.307,69.007 0,34.012 -21.123,63.904 -51.922,75.844 l -39.179,66.333 z m -12.746,-37.41 45.17,-76.477 c 23.749,-4.503 41.761,-25.413 41.761,-50.443 0,-23.606 -16.014,-43.542 -37.75,-49.515 v -9.726 c 0,-30.327 -24.673,-55 -55,-55 h -7.251 v -26 h 59.667 c 30.327,0 55,-24.673 55,-55 v -56 h -366 v 56 c 0,30.327 24.673,55 55,55 h 59.667 v 26 h -7.251 c -30.327,0 -55,24.673 -55,55 v 9.726 c -21.735,5.973 -37.75,25.909 -37.75,49.515 0,14.072 5.581,27.201 15.715,36.968 6.732,6.488 14.879,10.913 23.72,13 0.717,5.285 1.757,12.956 3.264,24.074 3.343,24.676 24.644,43.284 49.546,43.284 h 50.648 c 13.184,0 26.475,-0.51 39.675,-0.51 23.044,0 45.8,1.557 67.169,10.104" style="fill:#000000;fill-opacity:1;fill-rule:nonzero;stroke:none" id="path1704"/><path transform="matrix(1,0,0,1,176,640)" d="M 0,0 80,-128 160,0" style="fill:none;stroke:#000000;stroke-width:30;stroke-linecap:square;stroke-linejoin:bevel;stroke-miterlimit:10;stroke-dasharray:none;stroke-opacity:1" id="path1708"/><path transform="matrix(1,0,0,1,445.8333,204.8333)" d="m 0,0 c 0,-104.842 -84.991,-189.833 -189.833,-189.833 -104.584,-0.001 -189.05,83.807 -189.828,188.388 -0.292,39.159 11.274,75.599 31.321,105.945 4.463,6.756 30.507,42.667 30.507,42.667 l 17.567,-17.568 c 9.017,-9.016 21.943,-12.93 34.447,-10.429 17.897,3.579 30.756,19.332 30.655,37.583 -0.103,18.815 2.457,43.333 13.331,65.08 22.815,45.631 64,64 64,64 0,0 19.745,-74.665 106.666,-170.666 C -24.184,85.366 0,43.306 0,0" style="fill:#ffffff;fill-opacity:1;fill-rule:nonzero;stroke:none" id="path1720"/><path transform="matrix(1,0,0,1,315.1316,155.7049)" d="m 0,0 c 0,13.184 -4.329,17.12 -8.658,17.12 -4.329,0 -8.658,-3.936 -8.658,-17.12 0,-13.184 4.329,-17.12 8.658,-17.12 C -4.329,-17.12 0,-13.184 0,0 m -45.259,0 c 0,24.4 15.742,38.372 36.601,38.372 20.858,0 36.6,-13.972 36.6,-38.372 0,-24.597 -15.742,-38.372 -36.6,-38.372 -20.859,0 -36.601,13.775 -36.601,38.372 m -55.688,64.937 c 0,13.184 -4.329,17.119 -8.658,17.119 -4.329,0 -8.658,-3.935 -8.658,-17.119 0,-13.184 4.329,-17.12 8.658,-17.12 4.329,0 8.658,3.936 8.658,17.12 m 72.218,36.403 H 4.526 l -94.06,-137.744 h -33.255 z M -146.206,64.937 c 0,24.4 15.743,38.371 36.601,38.371 20.858,0 36.601,-13.971 36.601,-38.371 0,-24.598 -15.743,-38.372 -36.601,-38.372 -20.858,0 -36.601,13.774 -36.601,38.372" style="fill:#000000;fill-opacity:1;fill-rule:nonzero;stroke:none" id="path1728"/><path transform="matrix(1,0,0,1,327.1237,0)" d="M 0,0 H 5.612 L 4.127,3.712 Z" style="fill:#ffffff;fill-opacity:1;fill-rule:nonzero;stroke:none" id="path1732"/><path transform="matrix(1,0,0,1,305.2431,0.495)" d="M 0,0 -0.55,-0.495 H 43.648 L 31.952,28.739 Z" style="fill:#000000;fill-opacity:1;fill-rule:nonzero;stroke:none" id="path1736"/></g></mask><g mask="url(#custom)"><g id="g1692" transform="matrix(1.3333333,0,0,-1.3333333,0,682.66667)">
    <g id="g1694">
      <g id="g1696" clip-path="url(#clipPath1700)">
        <g id="g1702" transform="translate(350.1487,948.9041)">
          <path d="m 0,0 -23.888,-9.556 c -17.486,-6.994 -37.261,-7.958 -56.027,-7.958 -6.312,0 -12.607,0.121 -19.271,0.249 -6.65,0.129 -13.525,0.261 -20.404,0.261 h -50.648 c -39.844,0 -73.925,-29.773 -79.275,-69.256 l -0.926,-6.831 c -6.205,-3.433 -11.977,-7.687 -17.147,-12.669 -16.055,-15.476 -24.897,-36.276 -24.897,-58.57 0,-28.499 14.986,-54.408 38.308,-69.007 1.826,-15.902 8.059,-30.48 17.443,-42.486 -39.945,-6.935 -70.417,-41.85 -70.417,-83.748 v -56 -30 h 30 366 30 v 30 56 c 0,41.898 -30.472,76.813 -70.416,83.748 9.383,12.006 15.616,26.584 17.443,42.486 23.321,14.599 38.307,40.508 38.307,69.007 0,34.012 -21.123,63.904 -51.922,75.844 l -39.179,66.333 z m -12.746,-37.41 45.17,-76.477 c 23.749,-4.503 41.761,-25.413 41.761,-50.443 0,-23.606 -16.014,-43.542 -37.75,-49.515 v -9.726 c 0,-30.327 -24.673,-55 -55,-55 h -7.251 v -26 h 59.667 c 30.327,0 55,-24.673 55,-55 v -56 h -366 v 56 c 0,30.327 24.673,55 55,55 h 59.667 v 26 h -7.251 c -30.327,0 -55,24.673 -55,55 v 9.726 c -21.735,5.973 -37.75,25.909 -37.75,49.515 0,14.072 5.581,27.201 15.715,36.968 6.732,6.488 14.879,10.913 23.72,13 0.717,5.285 1.757,12.956 3.264,24.074 3.343,24.676 24.644,43.284 49.546,43.284 h 50.648 c 13.184,0 26.475,-0.51 39.675,-0.51 23.044,0 45.8,1.557 67.169,10.104" style="fill:#ffffff;fill-opacity:1;fill-rule:nonzero;stroke:none" id="path1704"/>
        </g>
        <g id="g1706" transform="translate(176,640)">
          <path d="M 0,0 80,-128 160,0" style="fill:none;stroke:#ffffff;stroke-width:30;stroke-linecap:square;stroke-linejoin:bevel;stroke-miterlimit:10;stroke-dasharray:none;stroke-opacity:1" id="path1708"/>
        </g>
      </g>
    </g>
    <g id="g1710">
      <g id="g1712" clip-path="url(#clipPath1716)">
        <g id="g1718" transform="translate(445.8333,204.8333)">
          <path d="m 0,0 c 0,-104.842 -84.991,-189.833 -189.833,-189.833 -104.584,-0.001 -189.05,83.807 -189.828,188.388 -0.292,39.159 11.274,75.599 31.321,105.945 4.463,6.756 30.507,42.667 30.507,42.667 l 17.567,-17.568 c 9.017,-9.016 21.943,-12.93 34.447,-10.429 17.897,3.579 30.756,19.332 30.655,37.583 -0.103,18.815 2.457,43.333 13.331,65.08 22.815,45.631 64,64 64,64 0,0 19.745,-74.665 106.666,-170.666 C -24.184,85.366 0,43.306 0,0" style="fill:#000000;fill-opacity:1;fill-rule:nonzero;stroke:none" id="path1720"/>
        </g>
        <g id="g1722" transform="translate(445.8333,204.8333)">
          <path d="m 0,0 c 0,-104.842 -84.991,-189.833 -189.833,-189.833 -104.584,-0.001 -189.05,83.807 -189.828,188.388 -0.292,39.159 11.274,75.599 31.321,105.945 4.463,6.756 30.507,42.667 30.507,42.667 l 17.567,-17.568 c 9.017,-9.016 21.943,-12.93 34.447,-10.429 17.897,3.579 30.756,19.332 30.655,37.583 -0.103,18.815 2.457,43.333 13.331,65.08 22.815,45.631 64,64 64,64 0,0 19.745,-74.665 106.666,-170.666 C -24.184,85.366 0,43.306 0,0 Z" style="fill:none;stroke:#000000;stroke-width:30;stroke-linecap:butt;stroke-linejoin:miter;stroke-miterlimit:10;stroke-dasharray:none;stroke-opacity:1" id="path1724"/>
        </g>
        <g id="g1726" transform="translate(315.1316,155.7049)">
          <path d="m 0,0 c 0,13.184 -4.329,17.12 -8.658,17.12 -4.329,0 -8.658,-3.936 -8.658,-17.12 0,-13.184 4.329,-17.12 8.658,-17.12 C -4.329,-17.12 0,-13.184 0,0 m -45.259,0 c 0,24.4 15.742,38.372 36.601,38.372 20.858,0 36.6,-13.972 36.6,-38.372 0,-24.597 -15.742,-38.372 -36.6,-38.372 -20.859,0 -36.601,13.775 -36.601,38.372 m -55.688,64.937 c 0,13.184 -4.329,17.119 -8.658,17.119 -4.329,0 -8.658,-3.935 -8.658,-17.119 0,-13.184 4.329,-17.12 8.658,-17.12 4.329,0 8.658,3.936 8.658,17.12 m 72.218,36.403 H 4.526 l -94.06,-137.744 h -33.255 z M -146.206,64.937 c 0,24.4 15.743,38.371 36.601,38.371 20.858,0 36.601,-13.971 36.601,-38.371 0,-24.598 -15.743,-38.372 -36.601,-38.372 -20.858,0 -36.601,13.774 -36.601,38.372" style="fill:#ffffff;fill-opacity:1;fill-rule:nonzero;stroke:none" id="path1728"/>
        </g>
      </g>
    </g>
    <g id="g1730" transform="translate(327.1237)">
      <path d="M 0,0 H 5.612 L 4.127,3.712 Z" style="fill:#000000;fill-opacity:1;fill-rule:nonzero;stroke:none" id="path1732"/>
    </g>
    <g id="g1734" transform="translate(305.2431,0.495)">
      <path d="M 0,0 -0.55,-0.495 H 43.648 L 31.952,28.739 Z" style="fill:#ffffff;fill-opacity:1;fill-rule:nonzero;stroke:none" id="path1736"/>
    </g>
  </g></g>
</svg>
