<?xml version="1.0" encoding="utf-8"?>
<!-- Generator: Adobe Illustrator 19.0.0, SVG Export Plug-In . SVG Version: 6.00 Build 0)  -->
<svg xmlns="http://www.w3.org/2000/svg" xmlns:xlink="http://www.w3.org/1999/xlink" version="1.1" id="Layer_1" x="0px" y="0px" viewBox="0 2 98 98" style="enable-background:new 0 2 98 98;" xml:space="preserve" width="512" height="512">
<style type="text/css">
	.st0{fill:url(#SVGID_1_);}
	.st1{fill:url(#SVGID_2_);}
	.st2{fill:url(#SVGID_3_);}
	.st3{fill:url(#SVGID_4_);}
	.st4{fill:url(#SVGID_5_);}
	.st5{fill:url(#SVGID_6_);}
	.st6{fill:url(#SVGID_7_);}
	.st7{fill:url(#SVGID_8_);}
	.st8{fill:url(#SVGID_9_);}
	.st9{fill:url(#SVGID_10_);}
</style>
<g>
	
		<linearGradient id="SVGID_1_" gradientUnits="userSpaceOnUse" x1="48.9525" y1="95.25" x2="48.9525" y2="11.4597" gradientTransform="matrix(1 0 0 -1 0 104)">
		<stop offset="0" style="stop-color:#00EFD1"/>
		<stop offset="1" style="stop-color:#00ACEA"/>
	</linearGradient>
	<path class="st0" d="M82.4,49.8H52.9v-2.4c0-5.9-4.8-10.7-10.7-10.7h-5.1c-2.6,0-4.7-2.1-4.7-4.7s2.1-4.7,4.7-4.7h5.1   c5.9,0,10.7-4.8,10.7-10.7V15c0-1.7-1.3-3-3-3s-3,1.3-3,3v1.6c0,2.6-2.1,4.7-4.7,4.7h-5.1c-5.9,0-10.7,4.8-10.7,10.7   s4.8,10.7,10.7,10.7h5.1c2.6,0,4.7,2.1,4.7,4.7v2.4H15.6c-1.7,0-3,1.3-3,3v38.1c0,1.7,1.3,3,3,3h66.7c1.7,0,3-1.3,3-3V52.8   C85.4,51.2,84,49.8,82.4,49.8z M79.4,87.9H18.6v-32h60.7L79.4,87.9L79.4,87.9z"/>
	
		<linearGradient id="SVGID_2_" gradientUnits="userSpaceOnUse" x1="48.9" y1="95.25" x2="48.9" y2="11.4597" gradientTransform="matrix(1 0 0 -1 0 104)">
		<stop offset="0" style="stop-color:#00EFD1"/>
		<stop offset="1" style="stop-color:#00ACEA"/>
	</linearGradient>
	<path class="st1" d="M37.6,84.7h22.6c1.7,0,3-1.3,3-3s-1.3-3-3-3H37.6c-1.7,0-3,1.3-3,3S36,84.7,37.6,84.7z"/>
	
		<linearGradient id="SVGID_3_" gradientUnits="userSpaceOnUse" x1="28.3" y1="95.25" x2="28.3" y2="11.4597" gradientTransform="matrix(1 0 0 -1 0 104)">
		<stop offset="0" style="stop-color:#00EFD1"/>
		<stop offset="1" style="stop-color:#00ACEA"/>
	</linearGradient>
	<path class="st2" d="M24.9,65.2h6.8c1.7,0,3-1.3,3-3s-1.3-3-3-3h-6.8c-1.7,0-3,1.3-3,3S23.3,65.2,24.9,65.2z"/>
	
		<linearGradient id="SVGID_4_" gradientUnits="userSpaceOnUse" x1="42.7" y1="95.25" x2="42.7" y2="11.4597" gradientTransform="matrix(1 0 0 -1 0 104)">
		<stop offset="0" style="stop-color:#00EFD1"/>
		<stop offset="1" style="stop-color:#00ACEA"/>
	</linearGradient>
	<path class="st3" d="M39.3,65.2h6.8c1.7,0,3-1.3,3-3s-1.3-3-3-3h-6.8c-1.7,0-3,1.3-3,3S37.7,65.2,39.3,65.2z"/>
	
		<linearGradient id="SVGID_5_" gradientUnits="userSpaceOnUse" x1="56.1" y1="95.25" x2="56.1" y2="11.4597" gradientTransform="matrix(1 0 0 -1 0 104)">
		<stop offset="0" style="stop-color:#00EFD1"/>
		<stop offset="1" style="stop-color:#00ACEA"/>
	</linearGradient>
	<path class="st4" d="M52.7,65.2h6.8c1.7,0,3-1.3,3-3s-1.3-3-3-3h-6.8c-1.7,0-3,1.3-3,3S51.1,65.2,52.7,65.2z"/>
	
		<linearGradient id="SVGID_6_" gradientUnits="userSpaceOnUse" x1="70.5" y1="95.25" x2="70.5" y2="11.4597" gradientTransform="matrix(1 0 0 -1 0 104)">
		<stop offset="0" style="stop-color:#00EFD1"/>
		<stop offset="1" style="stop-color:#00ACEA"/>
	</linearGradient>
	<path class="st5" d="M67.1,65.2h6.8c1.7,0,3-1.3,3-3s-1.3-3-3-3h-6.8c-1.7,0-3,1.3-3,3S65.5,65.2,67.1,65.2z"/>
	
		<linearGradient id="SVGID_7_" gradientUnits="userSpaceOnUse" x1="28.3" y1="95.25" x2="28.3" y2="11.4597" gradientTransform="matrix(1 0 0 -1 0 104)">
		<stop offset="0" style="stop-color:#00EFD1"/>
		<stop offset="1" style="stop-color:#00ACEA"/>
	</linearGradient>
	<path class="st6" d="M24.9,74.9h6.8c1.7,0,3-1.3,3-3s-1.3-3-3-3h-6.8c-1.7,0-3,1.3-3,3S23.3,74.9,24.9,74.9z"/>
	
		<linearGradient id="SVGID_8_" gradientUnits="userSpaceOnUse" x1="42.7" y1="95.25" x2="42.7" y2="11.4597" gradientTransform="matrix(1 0 0 -1 0 104)">
		<stop offset="0" style="stop-color:#00EFD1"/>
		<stop offset="1" style="stop-color:#00ACEA"/>
	</linearGradient>
	<path class="st7" d="M39.3,74.9h6.8c1.7,0,3-1.3,3-3s-1.3-3-3-3h-6.8c-1.7,0-3,1.3-3,3S37.7,74.9,39.3,74.9z"/>
	
		<linearGradient id="SVGID_9_" gradientUnits="userSpaceOnUse" x1="56.1" y1="95.25" x2="56.1" y2="11.4597" gradientTransform="matrix(1 0 0 -1 0 104)">
		<stop offset="0" style="stop-color:#00EFD1"/>
		<stop offset="1" style="stop-color:#00ACEA"/>
	</linearGradient>
	<path class="st8" d="M52.7,74.9h6.8c1.7,0,3-1.3,3-3s-1.3-3-3-3h-6.8c-1.7,0-3,1.3-3,3S51.1,74.9,52.7,74.9z"/>
	
		<linearGradient id="SVGID_10_" gradientUnits="userSpaceOnUse" x1="70.5" y1="95.25" x2="70.5" y2="11.4597" gradientTransform="matrix(1 0 0 -1 0 104)">
		<stop offset="0" style="stop-color:#00EFD1"/>
		<stop offset="1" style="stop-color:#00ACEA"/>
	</linearGradient>
	<path class="st9" d="M67.1,74.9h6.8c1.7,0,3-1.3,3-3s-1.3-3-3-3h-6.8c-1.7,0-3,1.3-3,3S65.5,74.9,67.1,74.9z"/>
</g>

</svg>
