<svg id="Laptop" enable-background="new 0 0 512 512" height="512" viewBox="0 0 512 512" width="512" xmlns="http://www.w3.org/2000/svg"><g><path d="m483.444 364.411c-3.328-6.016-8.674-9.466-14.668-9.466h-425.551c-5.994 0-11.34 3.45-14.668 9.465-4.263 7.705-5.421 20.54.615 30.162.819 1.306 1.941 2.395 3.271 3.175 33.186 19.462 35.102 19.462 38.003 19.462h371.108c2.902 0 4.818 0 38.003-19.462 1.33-.78 2.451-1.868 3.27-3.174 6.036-9.622 4.879-22.456.617-30.162z"/><path d="m453.449 335.775v-207.436c0-18.499-15.048-33.547-33.547-33.547h-327.804c-18.499 0-33.547 15.048-33.547 33.547v207.436zm-238.223-101.255c-3.748-3.748-3.748-9.815 0-13.553l27.288-27.288c3.738-3.748 9.805-3.748 13.553-.01 3.738 3.748 3.738 9.815 0 13.563l-27.288 27.288c-1.869 1.869-4.323 2.808-6.776 2.808-2.455 0-4.908-.939-6.777-2.808zm81.548-13.869-54.576 54.586c-1.869 1.869-4.323 2.799-6.776 2.799-2.454 0-4.898-.93-6.777-2.799-3.738-3.748-3.738-9.815 0-13.563l54.576-54.576c3.748-3.738 9.815-3.738 13.553 0 3.748 3.747 3.748 9.815 0 13.553z"/></g></svg>