<svg fill="none" height="512" viewBox="0 0 24 24" width="512" xmlns="http://www.w3.org/2000/svg"><g fill="rgb(0,0,0)"><path d="m3 4c-.55228 0-1 .44772-1 1v14c0 .5523.44772 1 1 1h3c.55228 0 1-.4477 1-1v-14c0-.55228-.44772-1-1-1z"/><path d="m9 4c-.55228 0-1 .44772-1 1v14c0 .5523.44772 1 1 1h3c.5523 0 1-.4477 1-1v-14c0-.55228-.4477-1-1-1z"/><path d="m18.6359 4.75582c-.0661-.26241-.2357-.48685-.4701-.62205-.2344-.13521-.5136-.16964-.7739-.09544l-2.6661.7602c-.5195.14812-.8275.68202-.6956 1.20585l3.3339 13.23982c.0661.2624.2357.4868.4701.622s.5136.1697.7738.0955l2.6662-.7602c.5195-.1481.8274-.682.6955-1.2059z"/></g></svg>