<svg id="glipy" height="512" viewBox="0 0 64 64" width="512" xmlns="http://www.w3.org/2000/svg"><path d="m59.608 4.20105a.99092.99092 0 0 0 -.87994-.16l-15.92882 4.41963-15.92879-4.41968a.94281.94281 0 0 0 -.46994-.02l-21.59839 4.49967a1.00408 1.00408 0 0 0 -.79993.98v49.49622a1.00724 1.00724 0 0 0 1.19992.97984l21.36837-4.44961 15.95882 4.42966a.98974.98974 0 0 0 .53993 0l16.19877-4.49966a.996.996 0 0 0 .72992-.95989v-49.49623a1.03431 1.03431 0 0 0 -.38992-.79995zm-4.10971 47.04643a.996.996 0 0 1 -.72993.95988l-11.69913 3.24976a.90427.90427 0 0 1 -.53993 0l-15.95882-4.42966-16.86871 3.50974a.99314.99314 0 0 1 -.83-.2 1.0222 1.0222 0 0 1 -.37-.77991v-40.49692a1.00408 1.00408 0 0 1 .79992-.98l17.09882-3.5597a.94281.94281 0 0 1 .46994.02l15.92879 4.41965 11.42912-3.16972a.99643.99643 0 0 1 .87994.16 1.0343 1.0343 0 0 1 .39.79992z"/><path d="m42.5293 14.96019-15.95882-4.42966-16.06878 3.34978v38.447l15.89881-3.30971a.94682.94682 0 0 1 .46994.02l15.92879 4.41965 10.6992-2.96975v-38.41705l-10.42921 2.88974a.98974.98974 0 0 1 -.53993 0zm-26.528-1.34988a3.42253 3.42253 0 0 1 3.4197 3.40969c0 1.54993-1.99985 4.35971-2.61979 5.17966a.99093.99093 0 0 1 -1.59986-.00006c-.61995-.81989-2.6198-3.62967-2.6198-5.1796a3.42254 3.42254 0 0 1 3.41973-3.40969zm24.958 20.28844-8.3093 2.37983a3.5631 3.5631 0 0 0 .11 6.87948l12.739 3.18976a3.011 3.011 0 1 1 -.46993 1.93986l-12.749-3.18976c-5.47865-1.24484-5.61981-9.31589-.17991-10.73918l8.31925-2.37982a3.55832 3.55832 0 0 0 -.97991-6.97945h-23.43822a1.00007 1.00007 0 0 1 .00006-1.99985h23.43816c6.39564.06072 7.65897 9.10496 1.51979 10.89913z"/><path d="m48.99878 47.99772a1.00013 1.00013 0 0 0 -1.99985-.00006 1.00013 1.00013 0 0 0 1.99985.00006z"/><path d="m17.42115 17.02a1.42021 1.42021 0 0 0 -2.83975 0 8.837 8.837 0 0 0 1.41988 2.83981 8.83694 8.83694 0 0 0 1.41987-2.83981z"/></svg>