<?xml version="1.0"?>
<svg xmlns="http://www.w3.org/2000/svg" xmlns:xlink="http://www.w3.org/1999/xlink" viewBox="0 0 512 512" width="512" height="512"><linearGradient id="a" gradientUnits="userSpaceOnUse" x1="256" x2="256" y1="8" y2="512.892"><stop offset="0" stop-color="#00efd1"/><stop offset="1" stop-color="#00acea"/></linearGradient><path d="m484 147.424a10 10 0 0 0 -4.81-8.344l-135-81.949a10 10 0 0 0 -9.8-.327l-78.39 40.684-78.393-40.688a10 10 0 0 0 -9.795.327l-135 81.949a10 10 0 0 0 -.315 16.9l56.669 37.354-56.674 37.353a10 10 0 0 0 -4.492 8.544 9.836 9.836 0 0 0 4.656 8.362l64.344 39.011v60.333a41.758 41.758 0 0 0 20.861 35.915l117.3 67.936a41.871 41.871 0 0 0 41.627 0l117.52-67.915a41.52 41.52 0 0 0 20.692-35.99v-60.593l64.084-38.7a9.987 9.987 0 0 0 .43-16.887l-56.262-37.369 56.279-37.372a10.006 10.006 0 0 0 4.469-8.534zm-227.991 118.476-128.4-72.6 128.4-73.048 128.855 73.048zm-82.625-188.755 61.684 32.013-127.347 72.448-51.027-33.63zm-65.648 127.9 127.375 72.014-61.745 32.435-60.752-37.015-55.894-33.811zm20.146 160.495a21.707 21.707 0 0 1 -10.882-18.608v-48.161l50.629 30.75a10.294 10.294 0 0 0 5.288 1.46 10.162 10.162 0 0 0 4.692-1.147l68.391-35.905v139.934c-.249-.131-.585-.256-.829-.4zm256.452 0-117.522 67.89c-.282.161-.524.306-.812.454v-139.955l68.349 35.905a9.995 9.995 0 0 0 4.65 1.147 9.677 9.677 0 0 0 5.11-1.46l50.891-31.07v48.428a21.47 21.47 0 0 1 -10.666 18.657zm16.7-94.071-62.4 38.028-61.716-32.42 127.842-72.028 50.573 33.587zm3.736-89.864-127.809-72.462 61.655-32 116.742 70.862z" fill="url(#a)"/></svg>
