<svg id="Capa_1" enable-background="new 0 0 512 512" height="512" viewBox="0 0 512 512" width="512" xmlns="http://www.w3.org/2000/svg" xmlns:xlink="http://www.w3.org/1999/xlink"><linearGradient id="SVGID_1_" gradientUnits="userSpaceOnUse" x1="256" x2="256" y1="512" y2="0"><stop offset="0" stop-color="#009efd"/><stop offset="1" stop-color="#2af598"/></linearGradient><g><g><path d="m421.616 312 20-80h-165.616c0-16.347 0-57.522 0-72h20c55.14 0 100-44.86 100-100v-60h-20c-60.24 0-111.71 38.248-131.417 91.733-25.692-31.546-64.822-51.733-108.583-51.733h-20v60c0 55.14 44.86 100 100 100h20v32h-165.616l20 80h-90.384v40h100.384l8.638 34.552c6.69 26.759 30.626 45.448 58.208 45.448h28.77v20c0 11.028-8.972 20-20 20h-20v40h20c33.084 0 60-26.916 60-60v-20h40v20c0 33.084 26.916 60 60 60h20v-40h-20c-11.028 0-20-8.972-20-20v-20h28.769c27.583 0 51.519-18.689 58.208-45.448l8.639-34.552h100.384v-40zm-65.616-269.991v17.991c0 33.084-26.916 60-60 60h-17.991c7.974-39.122 38.869-70.016 77.991-77.991zm-140 117.991c-33.084 0-60-26.916-60-60v-17.991c39.123 7.975 70.017 38.869 77.991 77.991zm148.172 216.851c-2.23 8.919-10.209 15.149-19.403 15.149h-177.538c-9.194 0-17.173-6.23-19.403-15.149l-6.213-24.851h228.769zm16.212-64.851h-248.768l-10-40h268.769z" fill="url(#SVGID_1_)"/></g></g></svg>