<svg id="Layer_1" enable-background="new 0 0 512 512" height="512" viewBox="0 0 512 512" width="512" xmlns="http://www.w3.org/2000/svg"><g><path d="m58.747 49.197h-6.179c-28.986 0-52.568 23.582-52.568 52.569s23.582 52.568 52.568 52.568h10.026c33.193 0 64.241 16.327 83.053 43.675l9.303 13.524 59.718-88.16c-37.982-46.722-95.094-74.176-155.921-74.176z"/><path d="m250.715 350.836c33.679 42.239 83.343 68.567 137.199 72.709l.014 30.556c.003 5.908 3.474 11.264 8.864 13.681 1.968.882 4.058 1.313 6.133 1.313 3.61 0 7.177-1.303 9.979-3.798l94.072-83.767c3.191-2.842 5.02-6.911 5.024-11.184s-1.813-8.346-4.997-11.196l-94.161-84.269c-4.41-3.947-10.727-4.932-16.128-2.515-5.401 2.416-8.878 7.782-8.875 13.7l.016 32.439c-27.578-4.094-52.458-19.485-68.431-42.893l-8.83-12.94-59.323 87.372c-.181.266-.373.525-.556.792z"/><path d="m506.976 91.867-94.073-83.767c-4.413-3.929-10.721-4.902-16.111-2.486-5.391 2.417-8.861 7.773-8.864 13.681l-.015 30.557c-58.737 4.525-112.443 35.472-145.802 84.717l-87.508 129.187c-24.461 36.114-65.108 57.674-108.727 57.674-25.101 0-45.521 20.42-45.521 45.52v12.012c0 25.1 20.42 45.52 45.521 45.52h10.135c68.669 0 132.694-33.918 171.269-90.73l92.186-135.774c15.937-23.474 40.795-38.92 68.39-43.062l-.016 32.415c-.003 5.917 3.474 11.284 8.875 13.7s11.719 1.431 16.128-2.515l94.161-84.269c3.185-2.85 5.002-6.922 4.997-11.196s-1.834-8.341-5.025-11.184z"/><circle cx="232.813" cy="462.698" r="45"/></g></svg>