<svg id="Capa_1" enable-background="new 0 0 512 512" height="512" viewBox="0 0 512 512" width="512" xmlns="http://www.w3.org/2000/svg"><g id="Shape_1_"><path d="m246.933 262.676c7.778-13.638 22.749-22.134 39.067-22.134 5.248 0 10.225 1.157 15 2.803v-108.345c0-8.291-6.709-15-15-15h-240c-8.291 0-15 6.709-15 15v240c0 8.291 6.709 15 15 15h128.176z"/><path d="m346 0c-58.588 0-108.071 37.734-126.707 90h66.707c24.814 0 45 20.186 45 45v134c4.98.569 9.981 1 15 1 74.443 0 135-60.557 135-135s-60.557-135-135-135z"/><g><path d="m406 512h-240c-5.347 0-10.283-2.842-12.979-7.471-2.681-4.629-2.695-10.327-.044-14.971l120-212c5.332-9.346 20.713-9.346 26.045 0l120 212c2.651 4.644 2.637 10.342-.044 14.971-2.695 4.629-7.631 7.471-12.978 7.471z"/></g></g></svg>