<?xml version="1.0" encoding="iso-8859-1"?>
<!-- Generator: Adobe Illustrator 19.0.0, SVG Export Plug-In . SVG Version: 6.00 Build 0)  -->
<svg version="1.1" id="Capa_1" xmlns="http://www.w3.org/2000/svg" xmlns:xlink="http://www.w3.org/1999/xlink" x="0px" y="0px"
	 viewBox="0 0 512 512" style="enable-background:new 0 0 512 512;" xml:space="preserve">
<g>
	<g>
		<path d="M381.354,0H130.648c-24.813,0-45,20.187-45,45v422c0,24.813,20.187,45,45,45h250.705c24.813,0,45-20.187,45-45V45
			C426.354,20.187,406.167,0,381.354,0z M256.001,72.544c27.351,0,49.523,22.172,49.523,49.523
			c0,27.351-22.172,49.523-49.523,49.523s-49.523-22.172-49.523-49.523C206.478,94.716,228.65,72.544,256.001,72.544z
			 M256.001,445.486c-65.208,0-118.258-53.05-118.258-118.257s53.05-118.258,118.258-118.258s118.258,53.05,118.258,118.258
			S321.209,445.486,256.001,445.486z"/>
	</g>
</g>
<g>
	<g>
		<path d="M256.001,277.338c-27.51,0-49.891,22.381-49.891,49.891c0,27.509,22.381,49.89,49.891,49.89s49.891-22.381,49.891-49.89
			C305.892,299.719,283.511,277.338,256.001,277.338z"/>
	</g>
</g>
<g>
</g>
<g>
</g>
<g>
</g>
<g>
</g>
<g>
</g>
<g>
</g>
<g>
</g>
<g>
</g>
<g>
</g>
<g>
</g>
<g>
</g>
<g>
</g>
<g>
</g>
<g>
</g>
<g>
</g>
</svg>
