<?xml version="1.0" encoding="iso-8859-1"?>
<!-- Generator: Adobe Illustrator 19.0.0, SVG Export Plug-In . SVG Version: 6.00 Build 0)  -->
<svg version="1.1" id="Capa_1" xmlns="http://www.w3.org/2000/svg" xmlns:xlink="http://www.w3.org/1999/xlink" x="0px" y="0px"
	 viewBox="0 0 512 512" style="enable-background:new 0 0 512 512;" xml:space="preserve">
<g>
	<g>
		<path d="M418.592,319.04l-2.624,49.792c-0.384,7.04-5.28,12.992-12.128,14.688C360.352,394.304,309.216,400,256,400
			s-104.352-5.696-147.84-16.48c-6.848-1.664-11.776-7.648-12.16-14.688l-2.592-49.792C53.952,320.224,0,326.336,0,368
			c0,63.04,128.768,96,256,96s256-32.96,256-96C512,326.304,458.048,320.224,418.592,319.04z"/>
	</g>
</g>
<g>
	<g>
		<path d="M382.368,48H129.632c-9.12,0-16.416,7.616-15.968,16.768l13.696,290.4c76.896,16.8,180.352,16.8,257.312,0l13.664-290.4
			C398.752,55.616,391.488,48,382.368,48z"/>
	</g>
</g>
<g>
</g>
<g>
</g>
<g>
</g>
<g>
</g>
<g>
</g>
<g>
</g>
<g>
</g>
<g>
</g>
<g>
</g>
<g>
</g>
<g>
</g>
<g>
</g>
<g>
</g>
<g>
</g>
<g>
</g>
</svg>
