<svg id="Capa_1" enable-background="new 0 0 512 512" height="512" viewBox="0 0 512 512" width="512" xmlns="http://www.w3.org/2000/svg"><g><path d="m507.458 100.029c-1.381-5.183-5.423-9.233-10.602-10.625s-10.707.087-14.499 3.88l-53.59 53.59-53.033-10.606-10.606-53.033 53.59-53.59c3.792-3.792 5.271-9.32 3.879-14.499-1.392-5.18-5.442-9.222-10.625-10.602-46.482-12.386-96.413.979-130.303 34.87-37.269 37.268-49.194 93.086-31.286 141.988l-226.663 205.076c-14.783 13.375-23.199 31.716-23.697 51.645-.498 19.93 6.991 38.669 21.088 52.766 13.657 13.656 31.669 21.111 50.9 21.111.62 0 1.243-.008 1.866-.023 19.929-.498 38.271-8.914 51.646-23.697l205.067-226.654c15.023 5.503 30.698 8.189 46.289 8.189 35.161 0 69.888-13.661 95.709-39.483 33.891-33.891 47.252-83.821 34.87-130.303zm-433.314 352.826c-8.284 0-15-6.716-15-15s6.716-15 15-15 15 6.716 15 15-6.715 15-15 15z"/></g></svg>